<svg width="29" height="30" viewBox="0 0 29 30" fill="none" xmlns="http://www.w3.org/2000/svg">
<path d="M28.5187 17.3774C28.3081 17.1663 28.0439 17.0165 27.7545 16.9442C27.4652 16.8719 27.1616 16.8797 26.8764 16.9668C24.8839 17.5684 22.7655 17.6181 20.7469 17.1109C18.7283 16.6036 16.8851 15.5583 15.4137 14.0863C13.9422 12.6143 12.8976 10.7707 12.3911 8.7519C11.8846 6.73312 11.9352 4.61476 12.5375 2.62246C12.6254 2.33711 12.6338 2.03321 12.5618 1.74343C12.4899 1.45366 12.3403 1.18898 12.1292 0.977853C11.9181 0.766731 11.6534 0.617156 11.3636 0.545214C11.0738 0.473273 10.7699 0.481686 10.4846 0.56955C7.48788 1.49062 4.85808 3.33353 2.96956 5.83595C1.31807 8.03105 0.310951 10.6429 0.0612167 13.3785C-0.188518 16.1141 0.329012 18.8652 1.55574 21.3231C2.78246 23.7809 4.66984 25.8483 7.00609 27.2932C9.34234 28.7382 12.035 29.5035 14.782 29.5033C17.9891 29.5126 21.1108 28.4698 23.6684 26.5348C26.1695 24.6444 28.0105 22.0131 28.9293 19.0156C29.0156 18.731 29.023 18.4282 28.9507 18.1397C28.8784 17.8512 28.7291 17.5877 28.5187 17.3774ZM21.6921 23.9111C19.4784 25.5777 16.7372 26.3886 13.9732 26.1946C11.2091 26.0007 8.60802 24.8149 6.6487 22.8556C4.68939 20.8963 3.50365 18.2953 3.30971 15.5312C3.11577 12.7671 3.92667 10.0259 5.59318 7.81222C6.47002 6.65221 7.55681 5.66709 8.79709 4.90803C8.77246 5.2584 8.76014 5.61013 8.76014 5.96323C8.76449 9.88205 10.3232 13.6391 13.0942 16.4101C15.8652 19.1812 19.6223 20.7398 23.5411 20.7442C23.8942 20.7442 24.2459 20.7319 24.5963 20.7072C23.8375 21.9477 22.8523 23.0345 21.6921 23.9111Z" fill="#1D1B1B"/>
</svg>
