<svg width="30" height="30" viewBox="0 0 30 30" fill="none" xmlns="http://www.w3.org/2000/svg">
<path d="M15.0002 0C6.71687 0 0 6.71562 0 15.0002C0 21.6276 4.298 27.2502 10.258 29.2337C11.0076 29.3726 11.2829 28.9083 11.2829 28.5122C11.2829 28.1544 11.2689 26.9729 11.2625 25.7195C7.08947 26.6268 6.20891 23.9496 6.20891 23.9496C5.52656 22.2158 4.54341 21.7548 4.54341 21.7548C3.18244 20.8238 4.646 20.843 4.646 20.843C6.15227 20.9487 6.94539 22.3887 6.94539 22.3887C8.28325 24.6819 10.4545 24.0189 11.3105 23.6357C11.4452 22.6661 11.8338 22.0044 12.2628 21.6299C8.93108 21.2505 5.4287 19.9643 5.4287 14.2167C5.4287 12.579 6.01465 11.2409 6.9742 10.1904C6.81846 9.81263 6.30503 8.28698 7.11953 6.22083C7.11953 6.22083 8.37914 5.81768 11.2457 7.75839C12.4422 7.42604 13.7253 7.25937 15.0002 7.25365C16.2749 7.25937 17.5592 7.42604 18.7578 7.75839C21.6209 5.81768 22.8787 6.22083 22.8787 6.22083C23.6952 8.28698 23.1816 9.81263 23.0258 10.1904C23.9876 11.2409 24.5696 12.579 24.5696 14.2167C24.5696 19.9781 21.0604 21.2466 17.7202 21.6179C18.2583 22.0835 18.7377 22.9962 18.7377 24.3957C18.7377 26.4027 18.7203 28.0181 18.7203 28.5122C18.7203 28.9113 18.9903 29.379 19.7507 29.2317C25.7075 27.246 30 21.6254 30 15.0002C30 6.71562 23.2841 0 15.0002 0ZM5.61804 21.368C5.58499 21.4425 5.46776 21.4649 5.36094 21.4137C5.25215 21.3648 5.19103 21.2631 5.22631 21.1884C5.25861 21.1116 5.37609 21.0903 5.48465 21.1418C5.5937 21.1907 5.65579 21.2933 5.61804 21.368ZM6.35587 22.0263C6.28434 22.0928 6.1445 22.0619 6.04961 21.957C5.95149 21.8525 5.9331 21.7127 6.00564 21.6453C6.07941 21.579 6.21504 21.6101 6.3134 21.7146C6.41151 21.8205 6.43063 21.9593 6.35587 22.0263ZM6.86207 22.8687C6.77016 22.9326 6.61988 22.8728 6.52698 22.7393C6.43506 22.6059 6.43506 22.446 6.52896 22.3818C6.62211 22.3178 6.77016 22.3754 6.8643 22.5078C6.95595 22.6434 6.95595 22.8034 6.86207 22.8687ZM7.71813 23.8443C7.63592 23.9349 7.46079 23.9106 7.33262 23.7869C7.20147 23.666 7.16495 23.4944 7.24742 23.4036C7.33064 23.3127 7.50675 23.3384 7.63591 23.4611C7.76607 23.5817 7.80581 23.7546 7.71813 23.8443ZM8.82452 24.1736C8.78825 24.2912 8.61959 24.3446 8.44968 24.2946C8.28003 24.2432 8.169 24.1056 8.20328 23.9868C8.23856 23.8686 8.40795 23.8129 8.5791 23.8663C8.74851 23.9175 8.85978 24.0542 8.82452 24.1736ZM10.0836 24.3134C10.0878 24.437 9.94379 24.5396 9.76544 24.5418C9.5861 24.5459 9.44103 24.4457 9.43904 24.324C9.43904 24.1991 9.57989 24.0975 9.75923 24.0945C9.93758 24.0911 10.0836 24.1904 10.0836 24.3134ZM11.3205 24.266C11.342 24.3866 11.2181 24.5106 11.0409 24.5436C10.8668 24.5754 10.7055 24.5009 10.6834 24.3812C10.6618 24.2574 10.788 24.1335 10.9619 24.1014C11.1393 24.0707 11.298 24.1433 11.3205 24.266Z" fill="#EDEDE9"/>
</svg>
