<svg width="24" height="29" viewBox="0 0 24 29" fill="none" xmlns="http://www.w3.org/2000/svg">
<path d="M15.95 2.9H2.9V26.1H20.3V7.25H15.95V2.9ZM2.9 0H17.4L23.2 5.8V26.1C23.2 26.8691 22.8945 27.6068 22.3506 28.1506C21.8068 28.6945 21.0691 29 20.3 29H2.9C2.13087 29 1.39325 28.6945 0.84939 28.1506C0.305535 27.6068 0 26.8691 0 26.1V2.9C0 2.13087 0.305535 1.39325 0.84939 0.84939C1.39325 0.305535 2.13087 0 2.9 0ZM5.8 13.05H17.4V15.95H5.8V13.05ZM5.8 18.85H17.4V21.75H5.8V18.85Z" fill="#EDEDE9"/>
</svg>
